<mxfile host="app.diagrams.net" agent="Mozilla/5.0 (Windows NT 10.0; Win64; x64) AppleWebKit/537.36 (KHTML, like Gecko) Chrome/130.0.0.0 Safari/537.36 Edg/130.0.0.0" version="24.8.6">
  <diagram id="C5RBs43oDa-KdzZeNtuy" name="Page-1">
    <mxGraphModel dx="658" dy="634" grid="1" gridSize="10" guides="1" tooltips="1" connect="1" arrows="1" fold="1" page="1" pageScale="1" pageWidth="827" pageHeight="1169" math="0" shadow="0">
      <root>
        <mxCell id="WIyWlLk6GJQsqaUBKTNV-0" />
        <mxCell id="WIyWlLk6GJQsqaUBKTNV-1" parent="WIyWlLk6GJQsqaUBKTNV-0" />
        <mxCell id="lhaPuq4jERMVTZvQzloN-2" value="" style="edgeStyle=orthogonalEdgeStyle;rounded=0;orthogonalLoop=1;jettySize=auto;html=1;" edge="1" parent="WIyWlLk6GJQsqaUBKTNV-1" source="lhaPuq4jERMVTZvQzloN-0" target="lhaPuq4jERMVTZvQzloN-1">
          <mxGeometry relative="1" as="geometry" />
        </mxCell>
        <mxCell id="lhaPuq4jERMVTZvQzloN-0" value="start" style="ellipse;whiteSpace=wrap;html=1;" vertex="1" parent="WIyWlLk6GJQsqaUBKTNV-1">
          <mxGeometry x="360" y="60" width="120" height="80" as="geometry" />
        </mxCell>
        <mxCell id="lhaPuq4jERMVTZvQzloN-4" value="" style="edgeStyle=orthogonalEdgeStyle;rounded=0;orthogonalLoop=1;jettySize=auto;html=1;" edge="1" parent="WIyWlLk6GJQsqaUBKTNV-1" source="lhaPuq4jERMVTZvQzloN-1" target="lhaPuq4jERMVTZvQzloN-3">
          <mxGeometry relative="1" as="geometry" />
        </mxCell>
        <mxCell id="lhaPuq4jERMVTZvQzloN-1" value="nhập a, b" style="shape=parallelogram;perimeter=parallelogramPerimeter;whiteSpace=wrap;html=1;fixedSize=1;" vertex="1" parent="WIyWlLk6GJQsqaUBKTNV-1">
          <mxGeometry x="360" y="190" width="120" height="60" as="geometry" />
        </mxCell>
        <mxCell id="lhaPuq4jERMVTZvQzloN-6" value="" style="edgeStyle=orthogonalEdgeStyle;rounded=0;orthogonalLoop=1;jettySize=auto;html=1;" edge="1" parent="WIyWlLk6GJQsqaUBKTNV-1" source="lhaPuq4jERMVTZvQzloN-3" target="lhaPuq4jERMVTZvQzloN-5">
          <mxGeometry relative="1" as="geometry" />
        </mxCell>
        <mxCell id="lhaPuq4jERMVTZvQzloN-3" value="nhập phép tính&amp;nbsp;&lt;div&gt;(+, -, *, /)&lt;/div&gt;" style="shape=parallelogram;perimeter=parallelogramPerimeter;whiteSpace=wrap;html=1;fixedSize=1;" vertex="1" parent="WIyWlLk6GJQsqaUBKTNV-1">
          <mxGeometry x="360" y="300" width="120" height="60" as="geometry" />
        </mxCell>
        <mxCell id="lhaPuq4jERMVTZvQzloN-8" value="đúng" style="edgeStyle=orthogonalEdgeStyle;rounded=0;orthogonalLoop=1;jettySize=auto;html=1;" edge="1" parent="WIyWlLk6GJQsqaUBKTNV-1" source="lhaPuq4jERMVTZvQzloN-5" target="lhaPuq4jERMVTZvQzloN-7">
          <mxGeometry x="-0.2" y="10" relative="1" as="geometry">
            <mxPoint as="offset" />
          </mxGeometry>
        </mxCell>
        <mxCell id="lhaPuq4jERMVTZvQzloN-10" value="sai" style="edgeStyle=orthogonalEdgeStyle;rounded=0;orthogonalLoop=1;jettySize=auto;html=1;" edge="1" parent="WIyWlLk6GJQsqaUBKTNV-1" source="lhaPuq4jERMVTZvQzloN-5" target="lhaPuq4jERMVTZvQzloN-9">
          <mxGeometry x="-0.2661" y="10" relative="1" as="geometry">
            <mxPoint as="offset" />
          </mxGeometry>
        </mxCell>
        <mxCell id="lhaPuq4jERMVTZvQzloN-5" value="phép +" style="rhombus;whiteSpace=wrap;html=1;" vertex="1" parent="WIyWlLk6GJQsqaUBKTNV-1">
          <mxGeometry x="360" y="410" width="120" height="80" as="geometry" />
        </mxCell>
        <mxCell id="lhaPuq4jERMVTZvQzloN-25" style="edgeStyle=orthogonalEdgeStyle;rounded=0;orthogonalLoop=1;jettySize=auto;html=1;exitX=1;exitY=0.5;exitDx=0;exitDy=0;entryX=1;entryY=0.5;entryDx=0;entryDy=0;" edge="1" parent="WIyWlLk6GJQsqaUBKTNV-1" source="lhaPuq4jERMVTZvQzloN-7" target="lhaPuq4jERMVTZvQzloN-21">
          <mxGeometry relative="1" as="geometry" />
        </mxCell>
        <mxCell id="lhaPuq4jERMVTZvQzloN-7" value="a+b=c" style="whiteSpace=wrap;html=1;" vertex="1" parent="WIyWlLk6GJQsqaUBKTNV-1">
          <mxGeometry x="530" y="420" width="120" height="60" as="geometry" />
        </mxCell>
        <mxCell id="lhaPuq4jERMVTZvQzloN-12" value="đúng" style="edgeStyle=orthogonalEdgeStyle;rounded=0;orthogonalLoop=1;jettySize=auto;html=1;" edge="1" parent="WIyWlLk6GJQsqaUBKTNV-1" source="lhaPuq4jERMVTZvQzloN-9" target="lhaPuq4jERMVTZvQzloN-11">
          <mxGeometry x="-0.2" y="15" relative="1" as="geometry">
            <mxPoint as="offset" />
          </mxGeometry>
        </mxCell>
        <mxCell id="lhaPuq4jERMVTZvQzloN-14" value="sai" style="edgeStyle=orthogonalEdgeStyle;rounded=0;orthogonalLoop=1;jettySize=auto;html=1;" edge="1" parent="WIyWlLk6GJQsqaUBKTNV-1" source="lhaPuq4jERMVTZvQzloN-9" target="lhaPuq4jERMVTZvQzloN-13">
          <mxGeometry x="-0.0811" y="10" relative="1" as="geometry">
            <mxPoint as="offset" />
          </mxGeometry>
        </mxCell>
        <mxCell id="lhaPuq4jERMVTZvQzloN-9" value="phép -" style="rhombus;whiteSpace=wrap;html=1;" vertex="1" parent="WIyWlLk6GJQsqaUBKTNV-1">
          <mxGeometry x="360" y="544.5" width="120" height="80" as="geometry" />
        </mxCell>
        <mxCell id="lhaPuq4jERMVTZvQzloN-24" style="edgeStyle=orthogonalEdgeStyle;rounded=0;orthogonalLoop=1;jettySize=auto;html=1;exitX=1;exitY=0.5;exitDx=0;exitDy=0;entryX=1;entryY=0.5;entryDx=0;entryDy=0;" edge="1" parent="WIyWlLk6GJQsqaUBKTNV-1" source="lhaPuq4jERMVTZvQzloN-11" target="lhaPuq4jERMVTZvQzloN-21">
          <mxGeometry relative="1" as="geometry" />
        </mxCell>
        <mxCell id="lhaPuq4jERMVTZvQzloN-11" value="a-b=c" style="whiteSpace=wrap;html=1;" vertex="1" parent="WIyWlLk6GJQsqaUBKTNV-1">
          <mxGeometry x="530" y="554.5" width="120" height="60" as="geometry" />
        </mxCell>
        <mxCell id="lhaPuq4jERMVTZvQzloN-16" value="đúng" style="edgeStyle=orthogonalEdgeStyle;rounded=0;orthogonalLoop=1;jettySize=auto;html=1;" edge="1" parent="WIyWlLk6GJQsqaUBKTNV-1" source="lhaPuq4jERMVTZvQzloN-13" target="lhaPuq4jERMVTZvQzloN-15">
          <mxGeometry x="-0.2" y="10" relative="1" as="geometry">
            <mxPoint as="offset" />
          </mxGeometry>
        </mxCell>
        <mxCell id="lhaPuq4jERMVTZvQzloN-20" value="sai" style="edgeStyle=orthogonalEdgeStyle;rounded=0;orthogonalLoop=1;jettySize=auto;html=1;" edge="1" parent="WIyWlLk6GJQsqaUBKTNV-1" source="lhaPuq4jERMVTZvQzloN-13" target="lhaPuq4jERMVTZvQzloN-19">
          <mxGeometry y="10" relative="1" as="geometry">
            <mxPoint as="offset" />
          </mxGeometry>
        </mxCell>
        <mxCell id="lhaPuq4jERMVTZvQzloN-13" value="phép *" style="rhombus;whiteSpace=wrap;html=1;" vertex="1" parent="WIyWlLk6GJQsqaUBKTNV-1">
          <mxGeometry x="360" y="680" width="120" height="80" as="geometry" />
        </mxCell>
        <mxCell id="lhaPuq4jERMVTZvQzloN-23" style="edgeStyle=orthogonalEdgeStyle;rounded=0;orthogonalLoop=1;jettySize=auto;html=1;exitX=1;exitY=0.5;exitDx=0;exitDy=0;entryX=1;entryY=0.5;entryDx=0;entryDy=0;" edge="1" parent="WIyWlLk6GJQsqaUBKTNV-1" source="lhaPuq4jERMVTZvQzloN-15" target="lhaPuq4jERMVTZvQzloN-21">
          <mxGeometry relative="1" as="geometry" />
        </mxCell>
        <mxCell id="lhaPuq4jERMVTZvQzloN-15" value="a*b=c" style="whiteSpace=wrap;html=1;" vertex="1" parent="WIyWlLk6GJQsqaUBKTNV-1">
          <mxGeometry x="530" y="690" width="120" height="60" as="geometry" />
        </mxCell>
        <mxCell id="lhaPuq4jERMVTZvQzloN-22" value="" style="edgeStyle=orthogonalEdgeStyle;rounded=0;orthogonalLoop=1;jettySize=auto;html=1;" edge="1" parent="WIyWlLk6GJQsqaUBKTNV-1" source="lhaPuq4jERMVTZvQzloN-19" target="lhaPuq4jERMVTZvQzloN-21">
          <mxGeometry relative="1" as="geometry" />
        </mxCell>
        <mxCell id="lhaPuq4jERMVTZvQzloN-19" value="a/b=c" style="whiteSpace=wrap;html=1;" vertex="1" parent="WIyWlLk6GJQsqaUBKTNV-1">
          <mxGeometry x="360" y="820" width="120" height="60" as="geometry" />
        </mxCell>
        <mxCell id="lhaPuq4jERMVTZvQzloN-21" value="end" style="ellipse;whiteSpace=wrap;html=1;" vertex="1" parent="WIyWlLk6GJQsqaUBKTNV-1">
          <mxGeometry x="360" y="950" width="120" height="80" as="geometry" />
        </mxCell>
      </root>
    </mxGraphModel>
  </diagram>
</mxfile>
